<svg width="300" height="80" viewBox="0 0 300 80" fill="none" xmlns="http://www.w3.org/2000/svg">
  <!-- S Symbol inspired by the uploaded image -->
  <circle cx="40" cy="40" r="35" fill="#FFD700" />
  <path d="M55 25C55 25 50 18 40 18C30 18 25 25 25 32C25 40 45 38 45 48C45 55 40 62 30 62C20 62 15 55 15 55L20 48C20 48 25 55 30 55C35 55 38 50 38 46C38 38 18 40 18 30C18 20 25 12 40 12C50 12 58 20 58 20L55 25Z" fill="black" />
  
  <!-- Text -->
  <text x="85" y="45" font-family="Plus Jakarta Sans, sans-serif" font-weight="900" font-size="20" fill="black" letter-spacing="-0.02em">
    SIYAPHUSHA
  </text>
  <text x="85" y="62" font-family="Plus Jakarta Sans, sans-serif" font-weight="700" font-size="10" fill="black" letter-spacing="0.2em">
    CONSORTIUM (PTY) LTD
  </text>
</svg>
